<mxfile host="app.diagrams.net" modified="2024-05-08T11:19:58.773Z" agent="Mozilla/5.0 (Macintosh; Intel Mac OS X 10_15_7) AppleWebKit/537.36 (KHTML, like Gecko) Chrome/124.0.0.0 Safari/537.36 Edg/124.0.0.0" etag="SPcxoaK5j-fRAKL9FFDH" version="24.3.1" type="github">
  <diagram id="prtHgNgQTEPvFCAcTncT" name="Page-1">
    <mxGraphModel dx="1503" dy="912" grid="1" gridSize="10" guides="1" tooltips="1" connect="1" arrows="1" fold="1" page="1" pageScale="1" pageWidth="827" pageHeight="1169" math="0" shadow="0">
      <root>
        <mxCell id="0" />
        <mxCell id="1" parent="0" />
        <mxCell id="DyHse917BIR1s7BlkHG4-1" value="借款申请 - h5申请" style="swimlane;childLayout=stackLayout;resizeParent=1;resizeParentMax=0;startSize=20;html=1;labelBackgroundColor=none;fillColor=#B2C9AB;strokeColor=#788AA3;fontColor=#46495D;" vertex="1" parent="1">
          <mxGeometry x="150" y="220" width="790" height="990" as="geometry" />
        </mxCell>
        <mxCell id="DyHse917BIR1s7BlkHG4-6" value="api渠道，eg：分期乐" style="swimlane;startSize=20;html=1;labelBackgroundColor=none;fillColor=#B2C9AB;strokeColor=#788AA3;fontColor=#46495D;" vertex="1" parent="DyHse917BIR1s7BlkHG4-1">
          <mxGeometry y="20" width="180" height="970" as="geometry" />
        </mxCell>
        <mxCell id="DyHse917BIR1s7BlkHG4-9" value="" style="edgeStyle=orthogonalEdgeStyle;rounded=0;orthogonalLoop=1;jettySize=auto;html=1;strokeColor=#788AA3;fontColor=#46495D;fillColor=#B2C9AB;" edge="1" parent="DyHse917BIR1s7BlkHG4-6" source="DyHse917BIR1s7BlkHG4-7" target="DyHse917BIR1s7BlkHG4-8">
          <mxGeometry relative="1" as="geometry" />
        </mxCell>
        <mxCell id="DyHse917BIR1s7BlkHG4-7" value="授信审核通过的用户" style="rounded=0;whiteSpace=wrap;html=1;strokeColor=#788AA3;fontColor=#46495D;fillColor=#B2C9AB;" vertex="1" parent="DyHse917BIR1s7BlkHG4-6">
          <mxGeometry x="30" y="60" width="120" height="60" as="geometry" />
        </mxCell>
        <mxCell id="DyHse917BIR1s7BlkHG4-56" style="edgeStyle=orthogonalEdgeStyle;curved=0;rounded=1;orthogonalLoop=1;jettySize=auto;html=1;strokeColor=#788AA3;align=center;verticalAlign=middle;fontFamily=Helvetica;fontSize=11;fontColor=#46495D;labelBackgroundColor=default;endArrow=classic;fillColor=#B2C9AB;" edge="1" parent="DyHse917BIR1s7BlkHG4-6" source="DyHse917BIR1s7BlkHG4-8" target="DyHse917BIR1s7BlkHG4-12">
          <mxGeometry relative="1" as="geometry" />
        </mxCell>
        <mxCell id="DyHse917BIR1s7BlkHG4-8" value="请求查询贷中h5地址" style="rounded=0;whiteSpace=wrap;html=1;strokeColor=#788AA3;fontColor=#46495D;fillColor=#B2C9AB;" vertex="1" parent="DyHse917BIR1s7BlkHG4-6">
          <mxGeometry x="30" y="170" width="120" height="60" as="geometry" />
        </mxCell>
        <mxCell id="DyHse917BIR1s7BlkHG4-12" value="跳转到贷中h5地址" style="rounded=0;whiteSpace=wrap;html=1;strokeColor=#788AA3;fontColor=#46495D;fillColor=#B2C9AB;" vertex="1" parent="DyHse917BIR1s7BlkHG4-6">
          <mxGeometry x="30" y="540" width="120" height="60" as="geometry" />
        </mxCell>
        <mxCell id="DyHse917BIR1s7BlkHG4-2" value="xyf-api-gateway" style="swimlane;startSize=20;html=1;labelBackgroundColor=none;fillColor=#B2C9AB;strokeColor=#788AA3;fontColor=#46495D;" vertex="1" parent="DyHse917BIR1s7BlkHG4-1">
          <mxGeometry x="180" y="20" width="200" height="970" as="geometry" />
        </mxCell>
        <mxCell id="DyHse917BIR1s7BlkHG4-47" value="" style="edgeStyle=orthogonalEdgeStyle;curved=0;rounded=1;orthogonalLoop=1;jettySize=auto;html=1;strokeColor=#788AA3;align=center;verticalAlign=middle;fontFamily=Helvetica;fontSize=11;fontColor=#46495D;labelBackgroundColor=default;endArrow=classic;fillColor=#B2C9AB;" edge="1" parent="DyHse917BIR1s7BlkHG4-2" source="DyHse917BIR1s7BlkHG4-10" target="DyHse917BIR1s7BlkHG4-46">
          <mxGeometry relative="1" as="geometry" />
        </mxCell>
        <mxCell id="DyHse917BIR1s7BlkHG4-10" value="获取贷中h5接口地址接口" style="rounded=0;whiteSpace=wrap;html=1;strokeColor=#788AA3;fontColor=#46495D;fillColor=#B2C9AB;" vertex="1" parent="DyHse917BIR1s7BlkHG4-2">
          <mxGeometry x="40" y="170" width="120" height="60" as="geometry" />
        </mxCell>
        <mxCell id="DyHse917BIR1s7BlkHG4-46" value="请求借款试算" style="rounded=0;whiteSpace=wrap;html=1;strokeColor=#788AA3;fontColor=#46495D;fillColor=#B2C9AB;" vertex="1" parent="DyHse917BIR1s7BlkHG4-2">
          <mxGeometry x="40" y="290" width="120" height="60" as="geometry" />
        </mxCell>
        <mxCell id="DyHse917BIR1s7BlkHG4-3" value="贷中前端h5" style="swimlane;startSize=20;html=1;labelBackgroundColor=none;fillColor=#B2C9AB;strokeColor=#788AA3;fontColor=#46495D;" vertex="1" parent="DyHse917BIR1s7BlkHG4-1">
          <mxGeometry x="380" y="20" width="190" height="970" as="geometry" />
        </mxCell>
        <mxCell id="DyHse917BIR1s7BlkHG4-19" value="" style="edgeStyle=orthogonalEdgeStyle;rounded=0;orthogonalLoop=1;jettySize=auto;html=1;strokeColor=#788AA3;fontColor=#46495D;fillColor=#B2C9AB;" edge="1" parent="DyHse917BIR1s7BlkHG4-3" source="DyHse917BIR1s7BlkHG4-16" target="DyHse917BIR1s7BlkHG4-18">
          <mxGeometry relative="1" as="geometry" />
        </mxCell>
        <mxCell id="DyHse917BIR1s7BlkHG4-16" value="发借款验证码" style="rounded=0;whiteSpace=wrap;html=1;strokeColor=#788AA3;fontColor=#46495D;fillColor=#B2C9AB;" vertex="1" parent="DyHse917BIR1s7BlkHG4-3">
          <mxGeometry x="33.75" y="600" width="82.5" height="50" as="geometry" />
        </mxCell>
        <mxCell id="DyHse917BIR1s7BlkHG4-21" value="" style="edgeStyle=orthogonalEdgeStyle;rounded=0;orthogonalLoop=1;jettySize=auto;html=1;strokeColor=#788AA3;fontColor=#46495D;fillColor=#B2C9AB;" edge="1" parent="DyHse917BIR1s7BlkHG4-3" source="DyHse917BIR1s7BlkHG4-18" target="DyHse917BIR1s7BlkHG4-20">
          <mxGeometry relative="1" as="geometry" />
        </mxCell>
        <mxCell id="DyHse917BIR1s7BlkHG4-18" value="借款验证码校验" style="rounded=0;whiteSpace=wrap;html=1;strokeColor=#788AA3;fontColor=#46495D;fillColor=#B2C9AB;" vertex="1" parent="DyHse917BIR1s7BlkHG4-3">
          <mxGeometry x="33.75" y="690" width="82.5" height="50" as="geometry" />
        </mxCell>
        <mxCell id="DyHse917BIR1s7BlkHG4-20" value="下单" style="rounded=0;whiteSpace=wrap;html=1;strokeColor=#788AA3;fontColor=#46495D;fillColor=#B2C9AB;" vertex="1" parent="DyHse917BIR1s7BlkHG4-3">
          <mxGeometry x="33.75" y="780" width="82.5" height="50" as="geometry" />
        </mxCell>
        <mxCell id="DyHse917BIR1s7BlkHG4-4" value="xyf-credit-system" style="swimlane;startSize=20;html=1;labelBackgroundColor=none;fillColor=#B2C9AB;strokeColor=#788AA3;fontColor=#46495D;" vertex="1" parent="DyHse917BIR1s7BlkHG4-1">
          <mxGeometry x="570" y="20" width="220" height="970" as="geometry" />
        </mxCell>
        <mxCell id="DyHse917BIR1s7BlkHG4-24" value="" style="edgeStyle=orthogonalEdgeStyle;rounded=0;orthogonalLoop=1;jettySize=auto;html=1;strokeColor=#788AA3;fontColor=#46495D;fillColor=#B2C9AB;" edge="1" parent="DyHse917BIR1s7BlkHG4-4" source="DyHse917BIR1s7BlkHG4-25" target="DyHse917BIR1s7BlkHG4-27">
          <mxGeometry relative="1" as="geometry" />
        </mxCell>
        <mxCell id="DyHse917BIR1s7BlkHG4-25" value="发借款验证码" style="rounded=0;whiteSpace=wrap;html=1;strokeColor=#788AA3;fontColor=#46495D;fillColor=#B2C9AB;" vertex="1" parent="DyHse917BIR1s7BlkHG4-4">
          <mxGeometry x="80" y="600" width="82.5" height="50" as="geometry" />
        </mxCell>
        <mxCell id="DyHse917BIR1s7BlkHG4-26" value="" style="edgeStyle=orthogonalEdgeStyle;rounded=0;orthogonalLoop=1;jettySize=auto;html=1;strokeColor=#788AA3;fontColor=#46495D;fillColor=#B2C9AB;" edge="1" parent="DyHse917BIR1s7BlkHG4-4" source="DyHse917BIR1s7BlkHG4-27" target="DyHse917BIR1s7BlkHG4-28">
          <mxGeometry relative="1" as="geometry" />
        </mxCell>
        <mxCell id="DyHse917BIR1s7BlkHG4-27" value="借款验证码校验" style="rounded=0;whiteSpace=wrap;html=1;strokeColor=#788AA3;fontColor=#46495D;fillColor=#B2C9AB;" vertex="1" parent="DyHse917BIR1s7BlkHG4-4">
          <mxGeometry x="80" y="690" width="82.5" height="50" as="geometry" />
        </mxCell>
        <mxCell id="DyHse917BIR1s7BlkHG4-40" value="" style="edgeStyle=orthogonalEdgeStyle;rounded=0;orthogonalLoop=1;jettySize=auto;html=1;strokeColor=#788AA3;fontColor=#46495D;fillColor=#B2C9AB;" edge="1" parent="DyHse917BIR1s7BlkHG4-4" source="DyHse917BIR1s7BlkHG4-28" target="DyHse917BIR1s7BlkHG4-39">
          <mxGeometry relative="1" as="geometry" />
        </mxCell>
        <mxCell id="DyHse917BIR1s7BlkHG4-28" value="下单" style="rounded=0;whiteSpace=wrap;html=1;strokeColor=#788AA3;fontColor=#46495D;fillColor=#B2C9AB;" vertex="1" parent="DyHse917BIR1s7BlkHG4-4">
          <mxGeometry x="80" y="780" width="82.5" height="50" as="geometry" />
        </mxCell>
        <mxCell id="DyHse917BIR1s7BlkHG4-52" style="edgeStyle=orthogonalEdgeStyle;curved=0;rounded=1;orthogonalLoop=1;jettySize=auto;html=1;entryX=1;entryY=0.5;entryDx=0;entryDy=0;strokeColor=#788AA3;align=center;verticalAlign=middle;fontFamily=Helvetica;fontSize=11;fontColor=#46495D;labelBackgroundColor=default;endArrow=classic;fillColor=#B2C9AB;" edge="1" parent="DyHse917BIR1s7BlkHG4-4" source="DyHse917BIR1s7BlkHG4-39" target="DyHse917BIR1s7BlkHG4-50">
          <mxGeometry relative="1" as="geometry">
            <Array as="points">
              <mxPoint x="270" y="895" />
              <mxPoint x="270" y="460" />
            </Array>
          </mxGeometry>
        </mxCell>
        <mxCell id="DyHse917BIR1s7BlkHG4-39" value="关联内部订单和外部订单" style="rounded=0;whiteSpace=wrap;html=1;strokeColor=#d6b656;fillColor=#fff2cc;" vertex="1" parent="DyHse917BIR1s7BlkHG4-4">
          <mxGeometry x="80" y="870" width="82.5" height="50" as="geometry" />
        </mxCell>
        <mxCell id="DyHse917BIR1s7BlkHG4-51" value="" style="edgeStyle=orthogonalEdgeStyle;curved=0;rounded=1;orthogonalLoop=1;jettySize=auto;html=1;strokeColor=#788AA3;align=center;verticalAlign=middle;fontFamily=Helvetica;fontSize=11;fontColor=#46495D;labelBackgroundColor=default;endArrow=classic;fillColor=#B2C9AB;" edge="1" parent="DyHse917BIR1s7BlkHG4-4" source="DyHse917BIR1s7BlkHG4-48" target="DyHse917BIR1s7BlkHG4-50">
          <mxGeometry relative="1" as="geometry" />
        </mxCell>
        <mxCell id="DyHse917BIR1s7BlkHG4-48" value="借款试算接口" style="rounded=0;whiteSpace=wrap;html=1;strokeColor=#788AA3;fontColor=#46495D;fillColor=#B2C9AB;" vertex="1" parent="DyHse917BIR1s7BlkHG4-4">
          <mxGeometry x="61.25" y="290" width="120" height="60" as="geometry" />
        </mxCell>
        <mxCell id="DyHse917BIR1s7BlkHG4-50" value="创建外部订单数据&lt;div&gt;cash_out_loan_order表&lt;/div&gt;" style="rounded=0;whiteSpace=wrap;html=1;strokeColor=#d6b656;fillColor=#fff2cc;" vertex="1" parent="DyHse917BIR1s7BlkHG4-4">
          <mxGeometry x="61.25" y="430" width="120" height="60" as="geometry" />
        </mxCell>
        <mxCell id="DyHse917BIR1s7BlkHG4-53" value="" style="rounded=0;whiteSpace=wrap;html=1;strokeColor=#FF3333;fontFamily=Helvetica;fontSize=11;fontColor=#46495D;labelBackgroundColor=default;fillColor=none;dashed=1;strokeWidth=2;" vertex="1" parent="DyHse917BIR1s7BlkHG4-4">
          <mxGeometry x="-170" y="550" width="350" height="300" as="geometry" />
        </mxCell>
        <mxCell id="DyHse917BIR1s7BlkHG4-54" value="1.0版本流程" style="rounded=0;whiteSpace=wrap;html=1;strokeColor=#d6b656;fillColor=#fff2cc;" vertex="1" parent="DyHse917BIR1s7BlkHG4-4">
          <mxGeometry x="-170" y="550" width="90" height="20" as="geometry" />
        </mxCell>
        <mxCell id="DyHse917BIR1s7BlkHG4-11" style="edgeStyle=orthogonalEdgeStyle;rounded=0;orthogonalLoop=1;jettySize=auto;html=1;entryX=0;entryY=0.5;entryDx=0;entryDy=0;strokeColor=#788AA3;fontColor=#46495D;fillColor=#B2C9AB;" edge="1" parent="DyHse917BIR1s7BlkHG4-1" source="DyHse917BIR1s7BlkHG4-8" target="DyHse917BIR1s7BlkHG4-10">
          <mxGeometry relative="1" as="geometry" />
        </mxCell>
        <mxCell id="DyHse917BIR1s7BlkHG4-30" style="edgeStyle=orthogonalEdgeStyle;rounded=0;orthogonalLoop=1;jettySize=auto;html=1;entryX=0;entryY=0.5;entryDx=0;entryDy=0;strokeColor=#788AA3;fontColor=#46495D;fillColor=#B2C9AB;" edge="1" parent="DyHse917BIR1s7BlkHG4-1" source="DyHse917BIR1s7BlkHG4-16" target="DyHse917BIR1s7BlkHG4-25">
          <mxGeometry relative="1" as="geometry" />
        </mxCell>
        <mxCell id="DyHse917BIR1s7BlkHG4-34" value="经apigateway转发" style="edgeLabel;html=1;align=center;verticalAlign=middle;resizable=0;points=[];strokeColor=#788AA3;fontColor=#46495D;fillColor=#B2C9AB;" vertex="1" connectable="0" parent="DyHse917BIR1s7BlkHG4-30">
          <mxGeometry x="-0.2864" y="-2" relative="1" as="geometry">
            <mxPoint x="11" y="-2" as="offset" />
          </mxGeometry>
        </mxCell>
        <mxCell id="DyHse917BIR1s7BlkHG4-31" style="edgeStyle=orthogonalEdgeStyle;rounded=0;orthogonalLoop=1;jettySize=auto;html=1;entryX=0;entryY=0.5;entryDx=0;entryDy=0;strokeColor=#788AA3;fontColor=#46495D;fillColor=#B2C9AB;" edge="1" parent="DyHse917BIR1s7BlkHG4-1" source="DyHse917BIR1s7BlkHG4-18" target="DyHse917BIR1s7BlkHG4-27">
          <mxGeometry relative="1" as="geometry" />
        </mxCell>
        <mxCell id="DyHse917BIR1s7BlkHG4-35" value="经apigateway转发" style="edgeLabel;html=1;align=center;verticalAlign=middle;resizable=0;points=[];strokeColor=#788AA3;fontColor=#46495D;fillColor=#B2C9AB;" vertex="1" connectable="0" parent="DyHse917BIR1s7BlkHG4-31">
          <mxGeometry x="-0.2864" y="1" relative="1" as="geometry">
            <mxPoint x="11" y="1" as="offset" />
          </mxGeometry>
        </mxCell>
        <mxCell id="DyHse917BIR1s7BlkHG4-32" style="edgeStyle=orthogonalEdgeStyle;rounded=0;orthogonalLoop=1;jettySize=auto;html=1;entryX=0;entryY=0.5;entryDx=0;entryDy=0;strokeColor=#788AA3;fontColor=#46495D;fillColor=#B2C9AB;" edge="1" parent="DyHse917BIR1s7BlkHG4-1" source="DyHse917BIR1s7BlkHG4-20" target="DyHse917BIR1s7BlkHG4-28">
          <mxGeometry relative="1" as="geometry" />
        </mxCell>
        <mxCell id="DyHse917BIR1s7BlkHG4-36" value="经apigateway转发" style="edgeLabel;html=1;align=center;verticalAlign=middle;resizable=0;points=[];strokeColor=#788AA3;fontColor=#46495D;fillColor=#B2C9AB;" vertex="1" connectable="0" parent="DyHse917BIR1s7BlkHG4-32">
          <mxGeometry x="-0.2864" y="-2" relative="1" as="geometry">
            <mxPoint x="11" y="-2" as="offset" />
          </mxGeometry>
        </mxCell>
        <mxCell id="DyHse917BIR1s7BlkHG4-41" style="edgeStyle=orthogonalEdgeStyle;rounded=1;orthogonalLoop=1;jettySize=auto;html=1;entryX=0;entryY=0.5;entryDx=0;entryDy=0;strokeColor=#788AA3;fontColor=#46495D;fillColor=#B2C9AB;curved=0;" edge="1" parent="DyHse917BIR1s7BlkHG4-1" source="DyHse917BIR1s7BlkHG4-12" target="DyHse917BIR1s7BlkHG4-16">
          <mxGeometry relative="1" as="geometry" />
        </mxCell>
        <mxCell id="DyHse917BIR1s7BlkHG4-49" style="edgeStyle=orthogonalEdgeStyle;curved=0;rounded=1;orthogonalLoop=1;jettySize=auto;html=1;strokeColor=#788AA3;align=center;verticalAlign=middle;fontFamily=Helvetica;fontSize=11;fontColor=#46495D;labelBackgroundColor=default;endArrow=classic;fillColor=#B2C9AB;" edge="1" parent="DyHse917BIR1s7BlkHG4-1" source="DyHse917BIR1s7BlkHG4-46" target="DyHse917BIR1s7BlkHG4-48">
          <mxGeometry relative="1" as="geometry" />
        </mxCell>
        <mxCell id="DyHse917BIR1s7BlkHG4-55" value="v2/out-order/trial" style="edgeLabel;html=1;align=center;verticalAlign=middle;resizable=0;points=[];strokeColor=#788AA3;fontFamily=Helvetica;fontSize=11;fontColor=#46495D;labelBackgroundColor=default;fillColor=#B2C9AB;" vertex="1" connectable="0" parent="DyHse917BIR1s7BlkHG4-49">
          <mxGeometry x="-0.0808" relative="1" as="geometry">
            <mxPoint as="offset" />
          </mxGeometry>
        </mxCell>
      </root>
    </mxGraphModel>
  </diagram>
</mxfile>
